<svg width="58" height="58" viewBox="0 0 58 58" fill="none" xmlns="http://www.w3.org/2000/svg">
<path d="M 28.6 57.7 C 44.4 57.7 57.2 44.8 57.2 28.9 C 57.2 12.9 44.4 0 28.6 0 C 12.8 0 0 12.9 0 28.9 C 0 44.8 12.8 57.7 28.6 57.7 Z" fill="#FF0101"/>
<path d="M 40.9 16.4 C 43.6 16.4 45.7 14.3 45.7 11.6 C 45.7 8.9 43.6 6.8 40.9 6.8 C 38.3 6.8 36.1 8.9 36.1 11.6 C 36.1 14.3 38.3 16.4 40.9 16.4 Z" fill="#020203"/>
<mask id="mask0_44_12" style="mask-type:alpha" maskUnits="userSpaceOnUse" x="0" y="0" width="58" height="58">
<path d="M 28.6 57.7 C 44.4 57.7 57.2 44.8 57.2 28.9 C 57.2 12.9 44.4 0 28.6 0 C 12.8 0 0 12.9 0 28.9 C 0 44.8 12.8 57.7 28.6 57.7 Z" fill="#FF0101"/>
</mask>
<g mask="url(#mask0_44_12)">
<path d="M 39.5 29.4 C 39.8 29.9 40.4 30.2 41 30.2 C 41.4 30.2 41.7 30.2 42 30 L 50.6 24.8 C 51.5 24.3 51.7 23.1 51.2 22.3 C 50.7 21.4 49.6 21.2 48.8 21.7 L 41.6 26 L 38.2 19.2 C 37.2 18.3 36.1 17.3 35.1 16.5 L 24.8 11.3 C 24.1 11 23.4 11 22.8 11.5 L 14.3 19.3 C 13.5 20 13.5 21.2 14.1 21.9 C 14.8 22.6 16 22.7 16.7 22 L 24.4 15 L 29.7 17.8 L 20.6 32.1 L -0.4 57.1 C -1.2 58 -1.1 59.5 -0.1 60.4 C 0.8 61.2 2.3 61.1 3.1 60.1 L 23.4 36.5 L 32.2 38.5 L 26.2 47.9 C 25.6 49.1 26 50.5 27.1 51.1 C 28.1 51.7 29.4 51.4 30.1 50.4 L 37.8 38.2 C 38.2 37.5 38.3 36.7 38 36 C 37.7 35.3 37.1 34.8 36.4 34.7 L 29.7 33.1 L 35.8 23.5 L 39.5 29.4 Z" fill="#020203"/>
</g>
</svg>
